<svg width="10" height="8" viewBox="0 0 10 8" fill="none" xmlns="http://www.w3.org/2000/svg">
<path d="M3.74556 6.77196L3.74554 6.77194L0.509012 3.61544L1.20264 2.93895L1.20265 2.93894C1.2027 2.93889 1.20268 2.93889 1.20268 2.93889C1.20268 2.93889 1.2027 2.93888 1.20283 2.93883C1.20342 2.9386 1.20492 2.93817 1.20709 2.93817C1.20926 2.93817 1.21076 2.9386 1.21135 2.93883C1.2116 2.93893 1.21143 2.93884 1.21152 2.93894L1.21154 2.93896L3.4009 5.07416L3.75 5.41462L4.0991 5.07416L8.78846 0.500772C8.78855 0.500681 8.78838 0.500768 8.78864 0.500666C8.78923 0.500432 8.79074 0.5 8.79291 0.5C8.79509 0.5 8.7966 0.500432 8.79719 0.500666C8.79744 0.500766 8.79728 0.500685 8.79736 0.500766C8.79737 0.500768 8.79737 0.500769 8.79737 0.500771L9.49099 1.17726L3.75447 6.77194C3.75446 6.77195 3.75446 6.77195 3.75445 6.77196C3.75444 6.77197 3.75444 6.77198 3.75443 6.77199C3.75442 6.77201 3.75447 6.77198 3.75427 6.77206C3.75368 6.7723 3.75217 6.77273 3.75 6.77273C3.74783 6.77273 3.74633 6.7723 3.74574 6.77206C3.74549 6.77196 3.74566 6.77205 3.74556 6.77196Z" fill="#505050" stroke="black"/>
</svg>
