<svg width="10" height="9" viewBox="0 0 10 9" fill="none" xmlns="http://www.w3.org/2000/svg">
<mask id="path-1-inside-1_1418_2749" fill="white">
<path d="M3.39644 8.82324L0.146441 4.90081C-0.0488135 4.66516 -0.0488135 4.28308 0.146441 4.0474L0.853531 3.19399C1.04879 2.95831 1.36539 2.95831 1.56064 3.19399L3.75 5.8363L8.43936 0.176739C8.63461 -0.058913 8.95122 -0.058913 9.14647 0.176739L9.85356 1.03015C10.0488 1.2658 10.0488 1.64789 9.85356 1.88356L4.10355 8.82326C3.90828 9.05892 3.5917 9.05892 3.39644 8.82324Z"/>
</mask>
<path d="M3.39644 8.82324L0.146441 4.90081C-0.0488135 4.66516 -0.0488135 4.28308 0.146441 4.0474L0.853531 3.19399C1.04879 2.95831 1.36539 2.95831 1.56064 3.19399L3.75 5.8363L8.43936 0.176739C8.63461 -0.058913 8.95122 -0.058913 9.14647 0.176739L9.85356 1.03015C10.0488 1.2658 10.0488 1.64789 9.85356 1.88356L4.10355 8.82326C3.90828 9.05892 3.5917 9.05892 3.39644 8.82324Z" fill="#505050"/>
<path d="M3.39644 8.82324L4.1665 8.18526L4.16647 8.18522L3.39644 8.82324ZM0.146441 4.90081L-0.623582 5.53883L0.146441 4.90081ZM0.146441 4.0474L-0.623591 3.4094L-0.623613 3.40942L0.146441 4.0474ZM0.853531 3.19399L1.62356 3.832L1.62358 3.83197L0.853531 3.19399ZM1.56064 3.19399L0.790587 3.83197L0.790622 3.83201L1.56064 3.19399ZM3.75 5.8363L2.97998 6.47432L3.75 7.40365L4.52002 6.47432L3.75 5.8363ZM8.43936 0.176739L9.20938 0.814758L9.20938 0.814756L8.43936 0.176739ZM9.14647 0.176739L9.9165 -0.461267L9.91649 -0.461278L9.14647 0.176739ZM9.85356 1.03015L9.08353 1.66816L9.08354 1.66817L9.85356 1.03015ZM9.85356 1.88356L10.6236 2.52158L10.6236 2.52154L9.85356 1.88356ZM4.10355 8.82326L4.87355 9.46132L4.87358 9.46128L4.10355 8.82326ZM4.16647 8.18522L0.916463 4.2628L-0.623582 5.53883L2.62642 9.46126L4.16647 8.18522ZM0.916463 4.2628C0.986606 4.34745 1 4.42744 1 4.47412C1 4.52079 0.986606 4.60075 0.916494 4.68538L-0.623613 3.40942C-1.12545 4.01515 -1.12549 4.93308 -0.623582 5.53883L0.916463 4.2628ZM0.916472 4.68541L1.62356 3.832L0.0835 2.55598L-0.623591 3.4094L0.916472 4.68541ZM1.62358 3.83197C1.54624 3.92533 1.39965 4.01723 1.20709 4.01723C1.01452 4.01723 0.867934 3.92533 0.790587 3.83197L2.33069 2.55601C2.05809 2.22698 1.65558 2.01723 1.20709 2.01723C0.758591 2.01723 0.356078 2.22698 0.0834774 2.55601L1.62358 3.83197ZM0.790622 3.83201L2.97998 6.47432L4.52002 5.19828L2.33066 2.55597L0.790622 3.83201ZM4.52002 6.47432L9.20938 0.814758L7.66934 -0.461279L2.97998 5.19828L4.52002 6.47432ZM9.20938 0.814756C9.13202 0.908123 8.98544 1 8.79291 1C8.60039 1 8.45381 0.908123 8.37645 0.814756L9.91649 -0.461278C9.64388 -0.790297 9.24137 -1 8.79291 -1C8.34446 -1 7.94195 -0.790297 7.66934 -0.461278L9.20938 0.814756ZM8.37644 0.814746L9.08353 1.66816L10.6236 0.392143L9.9165 -0.461267L8.37644 0.814746ZM9.08354 1.66817C9.01339 1.58351 9 1.50352 9 1.45685C9 1.41017 9.01339 1.33021 9.08351 1.24558L10.6236 2.52154C11.1254 1.91582 11.1255 0.997883 10.6236 0.392133L9.08354 1.66817ZM9.08354 1.24555L3.33353 8.18525L4.87358 9.46128L10.6236 2.52158L9.08354 1.24555ZM3.33356 8.18521C3.41089 8.09189 3.55746 8 3.75002 8C3.94258 8 4.08916 8.09191 4.1665 8.18526L2.62639 9.46122C2.89898 9.79024 3.30148 9.99999 3.74997 10C4.19845 10 4.60094 9.79029 4.87355 9.46132L3.33356 8.18521Z" fill="#505050" mask="url(#path-1-inside-1_1418_2749)"/>
</svg>
