<svg width="22" height="16" viewBox="0 0 22 16" fill="none" xmlns="http://www.w3.org/2000/svg">
<path d="M8.12887 14.8519L8.12886 14.8518L1.59148 8.31447C1.394 8.11699 1.39397 7.79676 1.59148 7.59922C1.59149 7.59921 1.59149 7.59921 1.5915 7.59921L3.01379 6.17687L3.01381 6.17685C3.21129 5.97935 3.53153 5.97935 3.72902 6.17685L3.72904 6.17687L8.13293 10.5807L8.48648 10.9343L8.84003 10.5807L18.2727 1.14812L17.9207 0.7961L18.2727 1.14812C18.4702 0.950627 18.7904 0.950627 18.9879 1.14812L20.4102 2.57047L20.7589 2.22176L20.4102 2.57047C20.6077 2.76795 20.6077 3.08819 20.4102 3.28573L8.84412 14.8519C8.84411 14.8519 8.84411 14.8519 8.8441 14.8519C8.64656 15.0494 8.32635 15.0494 8.12887 14.8519Z" fill="#12AD50" stroke="#F9F9F9"/>
</svg>
