<?xml version="1.0" standalone="no"?>
<!DOCTYPE svg PUBLIC "-//W3C//DTD SVG 20010904//EN"
 "http://www.w3.org/TR/2001/REC-SVG-20010904/DTD/svg10.dtd">
<svg version="1.0" xmlns="http://www.w3.org/2000/svg"
 width="2220.000000pt" height="1066.000000pt" viewBox="0 0 2220.000000 1066.000000"
 preserveAspectRatio="xMidYMid meet">

<g transform="translate(0.000000,1066.000000) scale(0.100000,-0.100000)"
fill="#000000" stroke="none">
<path d="M22180 8445 c0 -503 3 -765 10 -765 7 0 10 262 10 765 0 503 -3 765
-10 765 -7 0 -10 -262 -10 -765z"/>
<path d="M2496 7247 l-2168 -1082 2171 -1084 2171 -1085 2171 1085 2171 1084
-2168 1082 c-1193 595 -2171 1082 -2174 1082 -3 0 -981 -487 -2174 -1082z
m3987 -184 l1799 -898 -1806 -902 -1806 -903 -1806 903 -1806 902 1799 897
c989 494 1805 898 1813 898 8 0 824 -404 1813 -897z"/>
<path d="M15735 7094 c-16 -2 -66 -9 -110 -15 -555 -73 -1016 -432 -1134 -884
-19 -70 -41 -215 -41 -267 0 -17 28 -18 454 -18 l454 0 7 55 c22 181 186 334
407 379 277 57 523 -41 619 -247 31 -67 34 -79 34 -172 0 -118 -17 -177 -75
-258 -50 -69 -150 -138 -255 -174 -79 -27 -85 -27 -357 -31 l-278 -4 0 -338 0
-338 278 -4 c242 -4 287 -8 355 -26 167 -46 304 -146 363 -267 27 -56 29 -67
29 -180 -1 -108 -3 -126 -27 -175 -66 -143 -191 -235 -372 -275 -117 -26 -303
-17 -411 19 -98 33 -155 66 -217 124 -62 57 -95 115 -117 205 l-19 72 -468 3
c-257 1 -471 -1 -476 -6 -4 -4 -3 -49 2 -101 42 -403 292 -735 701 -930 254
-122 497 -171 841 -171 540 0 970 151 1264 445 141 141 224 283 276 473 29
107 32 373 4 477 -51 195 -175 372 -339 484 -112 77 -298 145 -472 174 -113
19 -112 37 3 60 312 64 579 290 656 558 54 186 29 466 -59 656 -73 158 -235
342 -392 446 -257 170 -529 247 -898 252 -110 2 -213 1 -230 -1z"/>
<path d="M11360 5085 l0 -1965 1290 0 1290 0 0 385 0 385 -815 0 -815 0 0
1580 0 1580 -475 0 -475 0 0 -1965z"/>
<path d="M19185 7038 c-3 -7 -286 -848 -630 -1868 -344 -1020 -641 -1899 -660
-1953 l-35 -97 512 2 513 3 81 260 c45 143 102 326 128 408 l47 147 679 0 679
0 35 -112 c19 -62 77 -247 128 -410 l93 -298 511 0 511 0 -84 248 c-46 136
-344 1019 -662 1962 l-578 1715 -632 3 c-500 2 -633 0 -636 -10z m866 -1673
l217 -690 -446 -3 c-245 -1 -447 -1 -448 1 -2 2 94 315 213 695 170 543 220
692 232 690 11 -2 79 -204 232 -693z"/>
<path d="M706 4870 c-38 -77 -67 -142 -64 -145 9 -9 3919 -1955 3928 -1955 5
0 17 14 26 32 l16 31 19 -31 20 -30 397 195 c218 108 561 276 762 375 201 99
496 245 655 323 1408 692 2085 1028 2085 1035 0 16 -132 280 -140 280 -11 0
-254 -118 -815 -395 -253 -125 -577 -285 -720 -355 -283 -139 -740 -364 -1380
-680 -690 -340 -880 -433 -890 -433 -11 1 -1129 556 -2794 1387 -558 278
-1019 506 -1025 506 -7 0 -43 -63 -80 -140z"/>
<path d="M707 3543 c-37 -76 -67 -142 -67 -146 0 -12 3934 -1969 3938 -1959 1
5 9 17 16 27 13 18 14 17 26 -6 7 -13 14 -25 16 -27 3 -5 103 44 759 368 303
150 636 314 740 365 105 51 388 190 630 310 242 120 557 275 700 345 767 376
1075 529 1075 534 0 13 -134 286 -140 286 -4 0 -214 -102 -466 -226 -253 -125
-576 -284 -719 -354 -143 -70 -467 -230 -720 -355 -253 -125 -550 -271 -660
-325 -110 -54 -429 -211 -709 -349 -280 -138 -512 -251 -517 -251 -4 0 -866
428 -1915 950 -1049 523 -1910 950 -1913 950 -4 0 -37 -62 -74 -137z"/>
</g>
</svg>
