<svg width="145" height="39" viewBox="0 0 145 39" fill="none" xmlns="http://www.w3.org/2000/svg">
<path d="M16.0938 21C16.0938 22.7448 15.763 24.2292 15.1016 25.4531C14.4453 26.6771 13.5495 27.612 12.4141 28.2578C11.2839 28.8984 10.013 29.2187 8.60156 29.2187C7.17969 29.2187 5.90365 28.8958 4.77344 28.25C3.64323 27.6042 2.75 26.6693 2.09375 25.4453C1.4375 24.2214 1.10938 22.7396 1.10938 21C1.10938 19.2552 1.4375 17.7708 2.09375 16.5469C2.75 15.3229 3.64323 14.3906 4.77344 13.75C5.90365 13.1042 7.17969 12.7812 8.60156 12.7812C10.013 12.7812 11.2839 13.1042 12.4141 13.75C13.5495 14.3906 14.4453 15.3229 15.1016 16.5469C15.763 17.7708 16.0938 19.2552 16.0938 21ZM12.6641 21C12.6641 19.8698 12.4948 18.9167 12.1562 18.1406C11.8229 17.3646 11.3516 16.776 10.7422 16.375C10.1328 15.974 9.41927 15.7734 8.60156 15.7734C7.78385 15.7734 7.07031 15.974 6.46094 16.375C5.85156 16.776 5.3776 17.3646 5.03906 18.1406C4.70573 18.9167 4.53906 19.8698 4.53906 21C4.53906 22.1302 4.70573 23.0833 5.03906 23.8594C5.3776 24.6354 5.85156 25.224 6.46094 25.625C7.07031 26.026 7.78385 26.2266 8.60156 26.2266C9.41927 26.2266 10.1328 26.026 10.7422 25.625C11.3516 25.224 11.8229 24.6354 12.1562 23.8594C12.4948 23.0833 12.6641 22.1302 12.6641 21ZM18.0531 33.5V17H21.3344V19.0156H21.4828C21.6286 18.6927 21.8396 18.3646 22.1156 18.0312C22.3969 17.6927 22.7614 17.4115 23.2094 17.1875C23.6625 16.9583 24.225 16.8438 24.8969 16.8438C25.7719 16.8438 26.5792 17.0729 27.3187 17.5313C28.0583 17.9844 28.6495 18.6693 29.0922 19.5859C29.5349 20.4974 29.7562 21.6406 29.7562 23.0156C29.7562 24.3542 29.5401 25.4844 29.1078 26.4062C28.6807 27.3229 28.0974 28.0182 27.3578 28.4922C26.6234 28.9609 25.8005 29.1953 24.889 29.1953C24.2432 29.1953 23.6937 29.0885 23.2406 28.875C22.7927 28.6615 22.4255 28.3932 22.139 28.0703C21.8526 27.7422 21.6338 27.4115 21.4828 27.0781H21.3812V33.5H18.0531ZM21.3109 23C21.3109 23.7135 21.4099 24.3359 21.6078 24.8672C21.8057 25.3984 22.0922 25.8125 22.4672 26.1094C22.8422 26.401 23.2979 26.5469 23.8344 26.5469C24.376 26.5469 24.8344 26.3984 25.2094 26.1016C25.5844 25.7995 25.8682 25.3828 26.0609 24.8516C26.2588 24.3151 26.3578 23.6979 26.3578 23C26.3578 22.3073 26.2614 21.6979 26.0687 21.1719C25.876 20.6458 25.5922 20.2344 25.2172 19.9375C24.8422 19.6406 24.3812 19.4922 23.8344 19.4922C23.2927 19.4922 22.8344 19.6354 22.4594 19.9219C22.0896 20.2083 21.8057 20.6146 21.6078 21.1406C21.4099 21.6667 21.3109 22.2865 21.3109 23ZM36.9597 29.2344C35.7254 29.2344 34.6629 28.9844 33.7722 28.4844C32.8868 27.9792 32.2045 27.2656 31.7254 26.3437C31.2462 25.4167 31.0066 24.3203 31.0066 23.0547C31.0066 21.8203 31.2462 20.737 31.7254 19.8047C32.2045 18.8724 32.879 18.1458 33.7488 17.625C34.6238 17.1042 35.6498 16.8438 36.8269 16.8438C37.6186 16.8438 38.3556 16.9714 39.0379 17.2266C39.7254 17.4766 40.3243 17.8542 40.8347 18.3594C41.3504 18.8646 41.7514 19.5 42.0379 20.2656C42.3243 21.026 42.4675 21.9167 42.4675 22.9375V23.8516H32.3347V21.7891H39.3347C39.3347 21.3099 39.2306 20.8854 39.0222 20.5156C38.8139 20.1458 38.5248 19.8568 38.155 19.6484C37.7905 19.4349 37.366 19.3281 36.8816 19.3281C36.3764 19.3281 35.9285 19.4453 35.5379 19.6797C35.1524 19.9089 34.8504 20.2187 34.6316 20.6094C34.4129 20.9948 34.3009 21.4245 34.2957 21.8984V23.8594C34.2957 24.4531 34.405 24.9661 34.6238 25.3984C34.8478 25.8307 35.1629 26.1641 35.5691 26.3984C35.9754 26.6328 36.4571 26.75 37.0144 26.75C37.3842 26.75 37.7228 26.6979 38.03 26.5938C38.3373 26.4896 38.6004 26.3333 38.8191 26.125C39.0379 25.9167 39.2045 25.6615 39.3191 25.3594L42.3972 25.5625C42.241 26.3021 41.9207 26.9479 41.4363 27.5C40.9571 28.0469 40.3373 28.474 39.5769 28.7813C38.8217 29.0833 37.9493 29.2344 36.9597 29.2344ZM47.4835 22.0625V29H44.1554V17H47.3273V19.1172H47.4679C47.7335 18.4193 48.1789 17.8672 48.8039 17.4609C49.4289 17.0495 50.1867 16.8438 51.0773 16.8438C51.9106 16.8438 52.6372 17.026 53.257 17.3906C53.8768 17.7552 54.3585 18.276 54.7023 18.9531C55.046 19.625 55.2179 20.4271 55.2179 21.3594V29H51.8898V21.9531C51.895 21.2187 51.7075 20.6458 51.3273 20.2344C50.9471 19.8177 50.4237 19.6094 49.757 19.6094C49.3091 19.6094 48.9132 19.7057 48.5695 19.8984C48.2309 20.0911 47.9653 20.3724 47.7726 20.7422C47.5851 21.1068 47.4888 21.5469 47.4835 22.0625ZM58.5402 29V10.0909H64.6432C65.985 10.0909 67.1053 10.334 68.004 10.8203C68.9088 11.3004 69.589 11.9683 70.0445 12.8239C70.5061 13.6733 70.7369 14.6489 70.7369 15.7507C70.7369 16.8525 70.5061 17.825 70.0445 18.6683C69.589 19.5116 68.9119 20.1702 68.0132 20.6442C67.1145 21.1181 66.0004 21.3551 64.6709 21.3551H59.4727V19.7763H64.6247C65.6096 19.7763 66.4282 19.6132 67.0807 19.2869C67.7393 18.9607 68.2287 18.496 68.5487 17.8928C68.875 17.2895 69.0381 16.5755 69.0381 15.7507C69.0381 14.9259 68.875 14.2057 68.5487 13.5902C68.2225 12.9685 67.7301 12.4884 67.0715 12.1499C66.419 11.8113 65.5942 11.642 64.597 11.642H60.2668V29H58.5402ZM66.8776 20.4688L71.531 29H69.5367L64.9294 20.4688H66.8776ZM79.0886 29.2585C77.9252 29.2585 76.9096 29.0339 76.0417 28.5845C75.1738 28.129 74.4998 27.5104 74.0197 26.7287C73.5396 25.947 73.2995 25.0637 73.2995 24.0788C73.2995 23.3648 73.4442 22.7216 73.7335 22.1491C74.0289 21.5705 74.4536 21.0227 75.0076 20.5057C75.5616 19.9825 76.2325 19.4408 77.0204 18.8807L79.7626 16.8402C80.4151 16.3724 80.9106 15.9138 81.2491 15.4645C81.5938 15.009 81.7661 14.4519 81.7661 13.7933C81.7661 13.1593 81.5261 12.593 81.046 12.0945C80.572 11.5897 79.9565 11.3374 79.1994 11.3374C78.67 11.3374 78.1961 11.4697 77.7775 11.7344C77.3651 11.9991 77.0358 12.3437 76.7896 12.7685C76.5495 13.187 76.4295 13.6271 76.4295 14.0888C76.4295 14.5196 76.5403 14.9536 76.7619 15.3906C76.9835 15.8215 77.282 16.277 77.6575 16.7571C78.033 17.2311 78.4515 17.7543 78.9132 18.3267L87.5552 29H85.5609L78.0268 19.7578C77.3928 18.9822 76.8296 18.2898 76.3372 17.6804C75.8447 17.0649 75.457 16.474 75.1738 15.9077C74.8907 15.3352 74.7491 14.7228 74.7491 14.0703C74.7491 13.264 74.9368 12.5469 75.3123 11.919C75.6878 11.285 76.2048 10.7865 76.8634 10.4233C77.5282 10.0601 78.2884 9.87855 79.144 9.87855C80.018 9.87855 80.7751 10.0571 81.4153 10.4141C82.0616 10.7711 82.5602 11.245 82.911 11.8359C83.268 12.4268 83.4465 13.0793 83.4465 13.7933C83.4465 14.6489 83.225 15.406 82.7818 16.0646C82.3447 16.7232 81.7077 17.3696 80.8705 18.0036L77.4359 20.5703C76.4941 21.2782 75.8478 21.9337 75.497 22.5369C75.1461 23.1402 74.9707 23.6541 74.9707 24.0788C74.9707 24.7436 75.143 25.3561 75.4877 25.9162C75.8324 26.4763 76.3095 26.9257 76.9188 27.2642C77.5344 27.6027 78.2392 27.7751 79.0332 27.7812C79.8211 27.7751 80.5628 27.6181 81.2583 27.3104C81.9539 26.9964 82.5756 26.5502 83.1234 25.9716C83.6774 25.393 84.1205 24.7005 84.4529 23.8942C84.7915 23.0878 84.9884 22.1892 85.0438 21.1982L86.6411 21.2166C86.6165 22.2322 86.478 23.094 86.2257 23.8018C85.9795 24.5036 85.6963 25.0821 85.3762 25.5376C85.0562 25.9931 84.7761 26.3594 84.536 26.6364C84.4683 26.7287 84.4006 26.821 84.3329 26.9134C84.2652 27.0057 84.1944 27.098 84.1205 27.1903C83.505 27.8674 82.7387 28.3814 81.8215 28.7322C80.9106 29.0831 79.9996 29.2585 79.0886 29.2585ZM95.4868 29H89.947V10.0909H95.8191C97.6227 10.0909 99.1646 10.4664 100.445 11.2173C101.731 11.9683 102.716 13.0455 103.399 14.4489C104.083 15.8523 104.424 17.5357 104.424 19.4993C104.424 21.4813 104.073 23.1832 103.372 24.6051C102.676 26.0208 101.661 27.1072 100.325 27.8643C98.9953 28.6214 97.3826 29 95.4868 29ZM91.6735 27.4489H95.3852C97.0102 27.4489 98.3705 27.1288 99.4662 26.4886C100.562 25.8485 101.384 24.9344 101.931 23.7464C102.479 22.5585 102.753 21.1428 102.753 19.4993C102.747 17.8681 102.476 16.4647 101.941 15.2891C101.411 14.1134 100.623 13.2116 99.577 12.5838C98.5367 11.956 97.2503 11.642 95.7176 11.642H91.6735V27.4489Z" fill="black"/>
<path d="M107.759 13V4.27273H111.253C111.895 4.27273 112.43 4.3679 112.859 4.55824C113.288 4.74858 113.611 5.01278 113.827 5.35085C114.043 5.68608 114.151 6.07244 114.151 6.50994C114.151 6.85085 114.082 7.15057 113.946 7.40909C113.81 7.66477 113.622 7.875 113.384 8.03977C113.148 8.2017 112.878 8.31676 112.574 8.38494V8.47017C112.906 8.48437 113.217 8.57812 113.507 8.75142C113.8 8.92472 114.037 9.16761 114.219 9.48011C114.401 9.78977 114.491 10.1591 114.491 10.5881C114.491 11.0511 114.376 11.4645 114.146 11.8281C113.919 12.1889 113.582 12.4744 113.136 12.6847C112.69 12.8949 112.141 13 111.487 13H107.759ZM109.604 11.4915H111.108C111.622 11.4915 111.997 11.3935 112.233 11.1974C112.469 10.9986 112.587 10.7344 112.587 10.4048C112.587 10.1634 112.528 9.95028 112.412 9.76562C112.295 9.58097 112.129 9.43608 111.913 9.33097C111.7 9.22585 111.446 9.1733 111.151 9.1733H109.604V11.4915ZM109.604 7.92472H110.972C111.224 7.92472 111.449 7.88068 111.645 7.79261C111.844 7.7017 112 7.57386 112.114 7.40909C112.23 7.24432 112.288 7.04688 112.288 6.81676C112.288 6.50142 112.176 6.24716 111.952 6.05398C111.73 5.8608 111.415 5.7642 111.006 5.7642H109.604V7.92472ZM118.641 13.1278C117.968 13.1278 117.388 12.9915 116.902 12.7188C116.419 12.4432 116.047 12.054 115.786 11.5511C115.525 11.0455 115.394 10.4474 115.394 9.7571C115.394 9.08381 115.525 8.4929 115.786 7.98438C116.047 7.47585 116.415 7.07955 116.89 6.79545C117.367 6.51136 117.926 6.36932 118.569 6.36932C119 6.36932 119.402 6.43892 119.775 6.57812C120.15 6.71449 120.476 6.92045 120.755 7.19602C121.036 7.47159 121.255 7.81818 121.411 8.2358C121.567 8.65057 121.645 9.13636 121.645 9.69318V10.1918H116.118V9.06676H119.936C119.936 8.8054 119.88 8.57386 119.766 8.37216C119.652 8.17045 119.495 8.01278 119.293 7.89915C119.094 7.78267 118.863 7.72443 118.598 7.72443C118.323 7.72443 118.078 7.78835 117.865 7.91619C117.655 8.04119 117.49 8.21023 117.371 8.4233C117.252 8.63352 117.191 8.8679 117.188 9.12642V10.196C117.188 10.5199 117.248 10.7997 117.367 11.0355C117.489 11.2713 117.661 11.4531 117.882 11.581C118.104 11.7088 118.367 11.7727 118.671 11.7727C118.873 11.7727 119.057 11.7443 119.225 11.6875C119.392 11.6307 119.536 11.5455 119.655 11.4318C119.775 11.3182 119.865 11.179 119.928 11.0142L121.607 11.125C121.522 11.5284 121.347 11.8807 121.083 12.1818C120.821 12.4801 120.483 12.7131 120.069 12.8807C119.657 13.0455 119.181 13.1278 118.641 13.1278ZM126.311 6.45455V7.81818H122.37V6.45455H126.311ZM123.265 4.88636H125.08V10.9886C125.08 11.1562 125.105 11.2869 125.157 11.3807C125.208 11.4716 125.279 11.5355 125.37 11.5724C125.463 11.6094 125.571 11.6278 125.694 11.6278C125.779 11.6278 125.864 11.6207 125.949 11.6065C126.034 11.5895 126.1 11.5767 126.145 11.5682L126.431 12.919C126.34 12.9474 126.212 12.9801 126.047 13.017C125.882 13.0568 125.682 13.081 125.446 13.0895C125.009 13.1065 124.625 13.0483 124.296 12.9148C123.969 12.7812 123.715 12.5739 123.533 12.2926C123.351 12.0114 123.262 11.6562 123.265 11.2273V4.88636ZM129.36 13.1236C128.943 13.1236 128.571 13.0511 128.244 12.9062C127.917 12.7585 127.659 12.5412 127.468 12.2543C127.281 11.9645 127.187 11.6037 127.187 11.1719C127.187 10.8082 127.254 10.5028 127.387 10.2557C127.521 10.0085 127.703 9.80966 127.933 9.65909C128.163 9.50852 128.424 9.39489 128.717 9.31818C129.012 9.24148 129.322 9.1875 129.646 9.15625C130.027 9.11648 130.333 9.07955 130.566 9.04545C130.799 9.00852 130.968 8.95455 131.074 8.88352C131.179 8.8125 131.231 8.70739 131.231 8.56818V8.54261C131.231 8.27273 131.146 8.06392 130.975 7.91619C130.808 7.76847 130.569 7.6946 130.26 7.6946C129.933 7.6946 129.673 7.76705 129.48 7.91193C129.287 8.05398 129.159 8.23295 129.096 8.44886L127.417 8.3125C127.502 7.91477 127.67 7.57102 127.92 7.28125C128.17 6.98864 128.493 6.7642 128.887 6.60795C129.285 6.44886 129.745 6.36932 130.268 6.36932C130.632 6.36932 130.98 6.41193 131.312 6.49716C131.647 6.58239 131.944 6.71449 132.203 6.89347C132.464 7.07244 132.67 7.30256 132.821 7.58381C132.971 7.86222 133.047 8.19602 133.047 8.58523V13H131.325V12.0923H131.274C131.169 12.2969 131.028 12.4773 130.852 12.6335C130.676 12.7869 130.464 12.9077 130.217 12.9957C129.97 13.081 129.684 13.1236 129.36 13.1236ZM129.88 11.8707C130.147 11.8707 130.383 11.8182 130.588 11.7131C130.792 11.6051 130.953 11.4602 131.069 11.2784C131.186 11.0966 131.244 10.8906 131.244 10.6605V9.96591C131.187 10.0028 131.109 10.0369 131.01 10.0682C130.913 10.0966 130.804 10.1236 130.681 10.1491C130.559 10.1719 130.437 10.1932 130.315 10.2131C130.193 10.2301 130.082 10.2457 129.983 10.2599C129.77 10.2912 129.583 10.3409 129.424 10.4091C129.265 10.4773 129.142 10.5696 129.054 10.6861C128.966 10.7997 128.922 10.9418 128.922 11.1122C128.922 11.3594 129.011 11.5483 129.19 11.679C129.372 11.8068 129.602 11.8707 129.88 11.8707Z" fill="#12AD50"/>
</svg>
