<?xml version="1.0" standalone="no"?>
<!DOCTYPE svg PUBLIC "-//W3C//DTD SVG 20010904//EN"
 "http://www.w3.org/TR/2001/REC-SVG-20010904/DTD/svg10.dtd">
<svg version="1.0" xmlns="http://www.w3.org/2000/svg"
 width="920.000000pt" height="920.000000pt" viewBox="0 0 920.000000 920.000000"
 preserveAspectRatio="xMidYMid meet">

<g transform="translate(0.000000,920.000000) scale(0.100000,-0.100000)"
fill="#000000" stroke="none">
<path d="M4160 7370 c-1882 -5 -1998 -6 -2040 -23 -117 -47 -201 -127 -259
-247 l-36 -75 -3 -2360 c-2 -1601 1 -2386 8 -2440 27 -208 181 -365 387 -395
38 -5 240 -10 450 -10 l382 0 -6 2165 -6 2165 2171 0 2172 0 0 383 c0 210 -5
413 -10 451 -29 199 -185 357 -380 385 -36 5 -238 9 -450 8 -212 -1 -1283 -4
-2380 -7z"/>
<path d="M3922 5455 c-146 -41 -267 -137 -328 -260 -20 -40 -34 -79 -32 -86 2
-7 58 -27 125 -44 l120 -32 12 33 c18 49 94 111 159 130 159 47 334 -43 349
-179 8 -72 -4 -114 -48 -162 -65 -70 -114 -88 -249 -93 l-115 -4 0 -128 0
-128 120 -4 c137 -5 184 -20 254 -84 60 -53 85 -106 85 -176 -2 -171 -208
-290 -402 -233 -88 26 -175 108 -189 178 -3 15 -6 27 -7 27 0 0 -53 -9 -116
-20 -63 -11 -118 -20 -122 -20 -15 0 -8 -41 17 -102 62 -153 210 -276 385
-319 70 -17 209 -17 280 0 227 56 396 241 416 459 12 126 -45 273 -145 373
l-57 56 39 44 c48 54 82 120 102 196 60 229 -77 470 -320 563 -78 30 -253 38
-333 15z"/>
<path d="M5085 5255 c-121 -96 -219 -178 -217 -182 5 -15 146 -213 150 -213 3
0 58 38 123 85 65 47 120 85 124 85 3 0 5 -289 5 -642 l-1 -643 126 0 125 0 0
843 0 842 -107 0 -108 -1 -220 -174z"/>
<path d="M6145 2446 c0 -332 2 -607 5 -610 3 -3 280 269 615 604 l610 610
-615 0 -615 0 0 -604z"/>
</g>
</svg>
