<?xml version="1.0" standalone="no"?>
<!DOCTYPE svg PUBLIC "-//W3C//DTD SVG 20010904//EN"
 "http://www.w3.org/TR/2001/REC-SVG-20010904/DTD/svg10.dtd">
<svg version="1.0" xmlns="http://www.w3.org/2000/svg"
 width="920.000000pt" height="566.000000pt" viewBox="0 0 920.000000 566.000000"
 preserveAspectRatio="xMidYMid meet">

<g transform="translate(0.000000,566.000000) scale(0.100000,-0.100000)"
fill="#8e8e8e" stroke="none">
<path d="M4800 5424 c-19 -2 -78 -9 -130 -14 -438 -48 -887 -238 -1249 -528
-591 -473 -941 -1242 -907 -1992 17 -367 101 -689 265 -1015 359 -710 1029
-1193 1826 -1317 165 -25 489 -30 645 -10 814 107 1505 584 1876 1296 140 268
225 539 266 846 20 152 15 489 -10 647 -113 704 -493 1300 -1077 1686 -290
192 -641 326 -988 378 -125 19 -437 33 -517 23z"/>
</g>
</svg>
