<svg width="25" height="18" viewBox="0 0 25 18" fill="none" xmlns="http://www.w3.org/2000/svg">
<path d="M7.5 9C9.91797 9 11.875 7.04297 11.875 4.625C11.875 2.20703 9.91797 0.25 7.5 0.25C5.08203 0.25 3.125 2.20703 3.125 4.625C3.125 7.04297 5.08203 9 7.5 9ZM10.5 10.25H10.1758C9.36328 10.6406 8.46094 10.875 7.5 10.875C6.53906 10.875 5.64062 10.6406 4.82422 10.25H4.5C2.01562 10.25 0 12.2656 0 14.75V15.875C0 16.9102 0.839844 17.75 1.875 17.75H13.125C14.1602 17.75 15 16.9102 15 15.875V14.75C15 12.2656 12.9844 10.25 10.5 10.25ZM18.75 9C20.8203 9 22.5 7.32031 22.5 5.25C22.5 3.17969 20.8203 1.5 18.75 1.5C16.6797 1.5 15 3.17969 15 5.25C15 7.32031 16.6797 9 18.75 9ZM20.625 10.25H20.4766C19.9336 10.4375 19.3594 10.5625 18.75 10.5625C18.1406 10.5625 17.5664 10.4375 17.0234 10.25H16.875C16.0781 10.25 15.3438 10.4805 14.6992 10.8516C15.6523 11.8789 16.25 13.2422 16.25 14.75V16.25C16.25 16.3359 16.2305 16.418 16.2266 16.5H23.125C24.1602 16.5 25 15.6602 25 14.625C25 12.207 23.043 10.25 20.625 10.25Z" fill="#505050"/>
</svg>
