<svg width="20" height="22" viewBox="0 0 20 22" fill="none" xmlns="http://www.w3.org/2000/svg">
<path d="M15.6875 13.75C14.7161 13.75 13.8232 14.086 13.1184 14.6478L8.7147 11.8955C8.84511 11.3056 8.84511 10.6943 8.7147 10.1044L13.1184 7.35213C13.8232 7.91403 14.7161 8.25 15.6875 8.25C17.9657 8.25 19.8125 6.40316 19.8125 4.125C19.8125 1.84684 17.9657 0 15.6875 0C13.4093 0 11.5625 1.84684 11.5625 4.125C11.5625 4.43257 11.5964 4.73215 11.6603 5.02051L7.2566 7.77283C6.55178 7.21097 5.65894 6.875 4.6875 6.875C2.40934 6.875 0.5625 8.72184 0.5625 11C0.5625 13.2782 2.40934 15.125 4.6875 15.125C5.65894 15.125 6.55178 14.789 7.2566 14.2272L11.6603 16.9795C11.5952 17.2735 11.5624 17.5738 11.5625 17.875C11.5625 20.1532 13.4093 22 15.6875 22C17.9657 22 19.8125 20.1532 19.8125 17.875C19.8125 15.5968 17.9657 13.75 15.6875 13.75Z" fill="black"/>
</svg>
