<svg width="36" height="36" viewBox="0 0 36 36" fill="none" xmlns="http://www.w3.org/2000/svg">
<rect x="0.1875" width="35.625" height="36" rx="17.8125" fill="#FBB816"/>
<path d="M20.8125 24.1875C20.8125 25.7383 19.5508 27 18 27C16.4492 27 15.1875 25.7383 15.1875 24.1875C15.1875 22.6367 16.4492 21.375 18 21.375C19.5508 21.375 20.8125 22.6367 20.8125 24.1875ZM15.513 9.8859L15.9912 19.4484C16.0136 19.8975 16.3843 20.25 16.8339 20.25H19.1661C19.6157 20.25 19.9864 19.8975 20.0088 19.4484L20.487 9.8859C20.511 9.40395 20.1268 9 19.6443 9H16.3557C15.8732 9 15.489 9.40395 15.513 9.8859Z" fill="white"/>
</svg>
