<?xml version="1.0" standalone="no"?>
<!DOCTYPE svg PUBLIC "-//W3C//DTD SVG 20010904//EN"
 "http://www.w3.org/TR/2001/REC-SVG-20010904/DTD/svg10.dtd">
<svg version="1.0" xmlns="http://www.w3.org/2000/svg"
 width="920.000000pt" height="830.000000pt" viewBox="0 0 920.000000 830.000000"
 preserveAspectRatio="xMidYMid meet">

<g transform="translate(0.000000,830.000000) scale(0.100000,-0.100000)"
fill="#000000" stroke="none">
<path d="M3702 6648 c-11 -18 -165 -292 -343 -608 -373 -665 -389 -694 -436
-778 l-35 -62 78 -138 c42 -75 129 -229 192 -342 439 -782 554 -985 560 -992
6 -5 204 343 782 1374 l55 98 833 2 832 3 -166 295 c-91 162 -208 369 -259
460 -52 91 -163 289 -248 440 l-155 275 -835 3 -835 2 -20 -32z"/>
<path d="M5309 4298 c-91 -162 -297 -527 -576 -1023 l-168 -300 -832 -3 -832
-2 106 -188 c58 -103 127 -225 153 -272 26 -47 106 -188 177 -315 71 -126 189
-337 263 -467 l134 -238 832 0 832 0 58 102 c32 57 74 132 94 168 148 264 420
747 538 957 78 138 142 254 142 257 0 4 -61 115 -136 249 -203 359 -491 870
-546 967 -26 47 -69 124 -95 172 -27 48 -50 88 -53 88 -3 0 -44 -69 -91 -152z"/>
</g>
</svg>
