<?xml version="1.0" standalone="no"?>
<!DOCTYPE svg PUBLIC "-//W3C//DTD SVG 20010904//EN"
 "http://www.w3.org/TR/2001/REC-SVG-20010904/DTD/svg10.dtd">
<svg version="1.0" xmlns="http://www.w3.org/2000/svg"
 width="200.000000pt" height="200.000000pt" viewBox="0 0 200.000000 200.000000"
 preserveAspectRatio="xMidYMid meet">

<g transform="translate(0.000000,200.000000) scale(0.100000,-0.100000)"
fill="#000000" stroke="none">
<path d="M0 1000 l0 -1000 1000 0 1000 0 0 1000 0 1000 -1000 0 -1000 0 0
-1000z m1090 628 c135 -69 98 -268 -52 -285 -91 -10 -168 57 -168 147 0 62 28
110 80 137 54 29 84 29 140 1z m493 8 c104 -43 127 -180 42 -255 -61 -53 -139
-53 -201 1 -128 112 2 320 159 254z m-999 -77 c69 -81 -13 -195 -111 -154 -39
16 -67 71 -57 110 12 46 49 75 98 75 37 0 48 -5 70 -31z m536 -425 c108 -98
44 -264 -102 -264 -110 0 -184 122 -133 220 27 53 73 80 137 80 53 0 62 -3 98
-36z m487 15 c39 -24 73 -84 73 -129 0 -44 -35 -108 -73 -130 -20 -13 -50 -20
-82 -20 -32 0 -62 7 -82 20 -38 22 -73 86 -73 130 0 44 35 108 73 130 44 27
119 26 164 -1z m-1026 -58 c55 -56 30 -148 -46 -167 -68 -17 -141 64 -114 128
29 71 108 90 160 39z m527 -418 c41 -29 75 -104 67 -146 -11 -57 -42 -97 -91
-118 -63 -28 -114 -19 -167 31 -37 34 -41 43 -45 96 -3 50 0 64 20 93 48 70
151 91 216 44z m-516 -66 c26 -34 23 -90 -8 -126 -22 -26 -33 -31 -70 -31 -78
0 -121 69 -87 138 31 63 123 74 165 19z m993 -2 c52 -51 12 -145 -60 -145 -52
0 -92 54 -80 109 13 62 94 83 140 36z"/>
</g>
</svg>
