<svg width="13" height="19" viewBox="0 0 13 19" fill="none" xmlns="http://www.w3.org/2000/svg">
<path d="M12.1668 15.2828C12.1668 16.9199 10.8402 18.25 9.20312 18.25C7.56603 18.25 6.23942 16.9199 6.23942 15.2828C6.23942 13.6457 7.56603 12.3191 9.20312 12.3191C10.8402 12.3191 12.1668 13.6457 12.1668 15.2828ZM9.20312 6.67742C10.8402 6.67742 12.0257 5.35081 12.0257 3.71371C12.0257 2.07661 10.8402 0.75 9.20312 0.75C7.56603 0.75 6.09829 2.07661 6.09829 3.71371C6.09829 5.35081 5.05393 6.39516 3.41683 6.39516C1.77974 6.39516 0.453125 7.8629 0.453125 9.5C0.453125 11.1371 1.77974 12.3226 3.41683 12.3226C5.05393 12.3226 6.38054 11.1371 6.38054 9.5C6.38054 7.8629 7.56603 6.67742 9.20312 6.67742Z" fill="#0354EC"/>
</svg>
