<svg width="29" height="23" viewBox="0 0 26 19" fill="none" xmlns="http://www.w3.org/2000/svg">
<path d="M21.168 8.35156C21.3281 7.93359 21.418 7.47656 21.418 7C21.418 4.92969 19.7383 3.25 17.668 3.25C16.8984 3.25 16.1797 3.48438 15.5859 3.88281C14.5039 2.00781 12.4844 0.75 10.168 0.75C6.71484 0.75 3.91797 3.54688 3.91797 7C3.91797 7.10547 3.92187 7.21094 3.92578 7.31641C1.73828 8.08594 0.167969 10.1719 0.167969 12.625C0.167969 15.7305 2.6875 18.25 5.79297 18.25H20.168C22.9297 18.25 25.168 16.0117 25.168 13.25C25.168 10.832 23.4492 8.8125 21.168 8.35156Z" fill="#0354EC"/>
</svg>
