<svg width="16" height="19" viewBox="0 0 16 19" fill="none" xmlns="http://www.w3.org/2000/svg">
<path d="M15.5156 3.25V4.8125C15.5156 6.18946 12.0863 7.3125 7.85938 7.3125C3.63248 7.3125 0.203125 6.18946 0.203125 4.8125V3.25C0.203125 1.87304 3.63248 0.75 7.85938 0.75C12.0863 0.75 15.5156 1.87304 15.5156 3.25ZM15.5156 6.76562V10.2812C15.5156 11.6582 12.0863 12.7812 7.85938 12.7812C3.63248 12.7812 0.203125 11.6582 0.203125 10.2812V6.76562C1.84802 7.89844 4.85867 8.4258 7.85938 8.4258C10.8601 8.4258 13.8707 7.89844 15.5156 6.76562ZM15.5156 12.2344V15.75C15.5156 17.127 12.0863 18.25 7.85938 18.25C3.63248 18.25 0.203125 17.127 0.203125 15.75V12.2344C1.84802 13.3672 4.85867 13.8946 7.85938 13.8946C10.8601 13.8946 13.8707 13.3672 15.5156 12.2344Z" fill="#0354EC"/>
</svg>
