<svg width="21" height="19" viewBox="0 0 21 19" fill="none" xmlns="http://www.w3.org/2000/svg">
<path d="M20.0546 14.37L10.4598 18.1911C10.3467 18.23 10.2248 18.25 10.1017 18.25C9.97855 18.25 9.85669 18.23 9.74353 18.1911L0.148315 14.37C-0.0469971 14.2919 -0.0469971 14.1638 0.148315 14.0853L2.44617 13.172C2.5595 13.1331 2.68151 13.1131 2.80481 13.1131C2.92811 13.1131 3.05012 13.1331 3.16345 13.172L9.74353 15.7892C9.85663 15.8282 9.97851 15.8484 10.1017 15.8484C10.2249 15.8484 10.3467 15.8282 10.4598 15.7892L17.0399 13.172C17.1532 13.1331 17.2751 13.1131 17.3983 13.1131C17.5215 13.1131 17.6435 13.1331 17.7567 13.172L20.0546 14.0872C20.2523 14.1638 20.2523 14.2919 20.0546 14.37ZM20.0546 9.03682L17.7567 8.12159C17.6435 8.08273 17.5215 8.06269 17.3983 8.06269C17.2751 8.06269 17.1532 8.08273 17.0399 8.12159L10.4598 10.7419C10.3466 10.7806 10.2248 10.8005 10.1017 10.8005C9.97858 10.8005 9.85675 10.7806 9.74353 10.7419L3.16345 8.12159C3.05012 8.08274 2.92811 8.06271 2.80481 8.06271C2.68151 8.06271 2.5595 8.08274 2.44617 8.12159L0.148315 9.03682C-0.0469971 9.11495 -0.0469971 9.24346 0.148315 9.32237L9.74353 13.1427C9.85669 13.1815 9.97855 13.2016 10.1017 13.2016C10.2248 13.2016 10.3467 13.1815 10.4598 13.1427L20.0546 9.32237C20.2523 9.24346 20.2523 9.11534 20.0546 9.03682ZM0.148315 4.59463L9.74304 8.12159C9.97327 8.19386 10.2291 8.19386 10.4594 8.12159L20.0546 4.59463C20.2499 4.52198 20.2499 4.40362 20.0546 4.33135L10.4594 0.804791C10.2293 0.731736 9.97308 0.731736 9.74304 0.804791L0.148315 4.33135C-0.0494385 4.40362 -0.0494385 4.52198 0.148315 4.59463Z" fill="#0354EC"/>
</svg>
