<svg width="25" height="25" viewBox="0 0 25 25" fill="none" xmlns="http://www.w3.org/2000/svg">
<path d="M8.10059 19.707C8.10059 19.8047 7.98828 19.8828 7.84668 19.8828C7.68555 19.8975 7.57324 19.8193 7.57324 19.707C7.57324 19.6094 7.68555 19.5312 7.82715 19.5312C7.97363 19.5166 8.10059 19.5947 8.10059 19.707ZM6.58203 19.4873C6.54785 19.585 6.64551 19.6973 6.79199 19.7266C6.91895 19.7754 7.06543 19.7266 7.09473 19.6289C7.12402 19.5312 7.03125 19.4189 6.88477 19.375C6.75781 19.3408 6.61621 19.3896 6.58203 19.4873ZM8.74023 19.4043C8.59863 19.4385 8.50098 19.5312 8.51562 19.6436C8.53027 19.7412 8.65723 19.8047 8.80371 19.7705C8.94531 19.7363 9.04297 19.6436 9.02832 19.5459C9.01367 19.4531 8.88184 19.3896 8.74023 19.4043ZM11.9531 0.693359C5.18066 0.693359 0 5.83496 0 12.6074C0 18.0225 3.4082 22.6562 8.27637 24.2871C8.90137 24.3994 9.12109 24.0137 9.12109 23.6963C9.12109 23.3936 9.10645 21.7236 9.10645 20.6982C9.10645 20.6982 5.68848 21.4307 4.9707 19.2432C4.9707 19.2432 4.41406 17.8223 3.61328 17.4561C3.61328 17.4561 2.49512 16.6895 3.69141 16.7041C3.69141 16.7041 4.90723 16.8018 5.57617 17.9639C6.64551 19.8486 8.4375 19.3066 9.13574 18.9844C9.24805 18.2031 9.56543 17.6611 9.91699 17.3389C7.1875 17.0361 4.43359 16.6406 4.43359 11.9434C4.43359 10.6006 4.80469 9.92676 5.58594 9.06738C5.45898 8.75 5.04395 7.44141 5.71289 5.75195C6.7334 5.43457 9.08203 7.07031 9.08203 7.07031C10.0586 6.79688 11.1084 6.65527 12.1484 6.65527C13.1885 6.65527 14.2383 6.79688 15.2148 7.07031C15.2148 7.07031 17.5635 5.42969 18.584 5.75195C19.2529 7.44629 18.8379 8.75 18.7109 9.06738C19.4922 9.93164 19.9707 10.6055 19.9707 11.9434C19.9707 16.6553 17.0947 17.0312 14.3652 17.3389C14.8145 17.7246 15.1953 18.457 15.1953 19.6045C15.1953 21.25 15.1807 23.2861 15.1807 23.6865C15.1807 24.0039 15.4053 24.3896 16.0254 24.2773C20.9082 22.6562 24.2188 18.0225 24.2188 12.6074C24.2188 5.83496 18.7256 0.693359 11.9531 0.693359ZM4.74609 17.5342C4.68262 17.583 4.69727 17.6953 4.78027 17.7881C4.8584 17.8662 4.9707 17.9004 5.03418 17.8369C5.09766 17.7881 5.08301 17.6758 5 17.583C4.92188 17.5049 4.80957 17.4707 4.74609 17.5342ZM4.21875 17.1387C4.18457 17.2021 4.2334 17.2803 4.33105 17.3291C4.40918 17.3779 4.50684 17.3633 4.54102 17.2949C4.5752 17.2314 4.52637 17.1533 4.42871 17.1045C4.33105 17.0752 4.25293 17.0898 4.21875 17.1387ZM5.80078 18.877C5.72266 18.9404 5.75195 19.0869 5.86426 19.1797C5.97656 19.292 6.11816 19.3066 6.18164 19.2285C6.24512 19.165 6.21582 19.0186 6.11816 18.9258C6.01074 18.8135 5.86426 18.7988 5.80078 18.877ZM5.24414 18.1592C5.16602 18.208 5.16602 18.335 5.24414 18.4473C5.32227 18.5596 5.4541 18.6084 5.51758 18.5596C5.5957 18.4961 5.5957 18.3691 5.51758 18.2568C5.44922 18.1445 5.32227 18.0957 5.24414 18.1592Z" fill="black"/>
</svg>
