<svg width="25" height="16" viewBox="0 0 25 16" fill="none" xmlns="http://www.w3.org/2000/svg">
<path d="M7.5 8C9.91797 8 11.875 6.21071 11.875 4C11.875 1.78929 9.91797 0 7.5 0C5.08203 0 3.125 1.78929 3.125 4C3.125 6.21071 5.08203 8 7.5 8ZM10.5 9.14286H10.1758C9.36328 9.5 8.46094 9.71429 7.5 9.71429C6.53906 9.71429 5.64062 9.5 4.82422 9.14286H4.5C2.01562 9.14286 0 10.9857 0 13.2571V14.2857C0 15.2321 0.839844 16 1.875 16H13.125C14.1602 16 15 15.2321 15 14.2857V13.2571C15 10.9857 12.9844 9.14286 10.5 9.14286ZM18.75 8C20.8203 8 22.5 6.46429 22.5 4.57143C22.5 2.67857 20.8203 1.14286 18.75 1.14286C16.6797 1.14286 15 2.67857 15 4.57143C15 6.46429 16.6797 8 18.75 8ZM20.625 9.14286H20.4766C19.9336 9.31429 19.3594 9.42857 18.75 9.42857C18.1406 9.42857 17.5664 9.31429 17.0234 9.14286H16.875C16.0781 9.14286 15.3438 9.35357 14.6992 9.69286C15.6523 10.6321 16.25 11.8786 16.25 13.2571V14.6286C16.25 14.7071 16.2305 14.7821 16.2266 14.8571H23.125C24.1602 14.8571 25 14.0893 25 13.1429C25 10.9321 23.043 9.14286 20.625 9.14286Z" fill="#505050"/>
</svg>
