<svg width="23" height="25" viewBox="0 0 23 25" fill="none" xmlns="http://www.w3.org/2000/svg">
<path d="M17.4062 15.625C16.3023 15.625 15.2877 16.0068 14.4868 16.6453L9.48262 13.5176C9.63081 12.8473 9.63081 12.1527 9.48262 11.4823L14.4868 8.35469C15.2877 8.99321 16.3023 9.375 17.4062 9.375C19.9951 9.375 22.0938 7.27632 22.0938 4.6875C22.0938 2.09868 19.9951 0 17.4062 0C14.8174 0 12.7188 2.09868 12.7188 4.6875C12.7188 5.03701 12.7573 5.37744 12.8299 5.70513L7.82568 8.83276C7.02476 8.19429 6.01016 7.8125 4.90625 7.8125C2.31743 7.8125 0.21875 9.91118 0.21875 12.5C0.21875 15.0888 2.31743 17.1875 4.90625 17.1875C6.01016 17.1875 7.02476 16.8057 7.82568 16.1672L12.8299 19.2949C12.7559 19.629 12.7187 19.9703 12.7188 20.3125C12.7188 22.9013 14.8174 25 17.4062 25C19.9951 25 22.0938 22.9013 22.0938 20.3125C22.0938 17.7237 19.9951 15.625 17.4062 15.625Z" fill="black"/>
</svg>
