<svg width="26" height="21" viewBox="0 0 26 21" fill="none" xmlns="http://www.w3.org/2000/svg">
<path d="M22.6489 5.40791C22.6648 5.62998 22.6648 5.8521 22.6648 6.07417C22.6648 12.8476 17.5094 20.6522 8.08677 20.6522C5.18384 20.6522 2.48716 19.8114 0.21875 18.3521C0.631201 18.3997 1.02773 18.4155 1.45605 18.4155C3.85132 18.4155 6.0563 17.6065 7.81709 16.2265C5.56455 16.1789 3.67686 14.7036 3.02646 12.6731C3.34375 12.7207 3.66099 12.7524 3.99414 12.7524C4.45415 12.7524 4.91421 12.689 5.34248 12.578C2.99478 12.102 1.23394 10.0399 1.23394 7.54941V7.48599C1.91602 7.8667 2.70923 8.10464 3.5499 8.13633C2.16982 7.21626 1.26567 5.64585 1.26567 3.86919C1.26567 2.91743 1.51943 2.04497 1.96362 1.28354C4.48584 4.39268 8.2771 6.4231 12.5283 6.64522C12.449 6.2645 12.4014 5.86797 12.4014 5.47139C12.4014 2.64775 14.6857 0.347656 17.5251 0.347656C19.0004 0.347656 20.3329 0.966309 21.2688 1.96567C22.4268 1.7436 23.5372 1.31528 24.5207 0.728369C24.1399 1.91812 23.331 2.91748 22.2682 3.55195C23.2993 3.44097 24.2986 3.15537 25.2187 2.75884C24.5208 3.77402 23.6483 4.67817 22.6489 5.40791Z" fill="black"/>
</svg>
